<svg width="35" height="35" viewBox="0 0 35 35" fill="none" xmlns="http://www.w3.org/2000/svg">
<path d="M17.5 0C7.8506 0 0 7.8506 0 17.5C0 27.1494 7.8506 35 17.5 35C27.1494 35 35 27.1494 35 17.5C35 7.8506 27.1494 0 17.5 0ZM23.7907 18.2825L14.1615 24.0995C14.0235 24.1822 13.866 24.2267 13.7051 24.2284C13.5442 24.2301 13.3858 24.189 13.246 24.1093C13.1063 24.0296 12.9902 23.9141 12.9098 23.7747C12.8294 23.6354 12.7875 23.4771 12.7885 23.3162V11.6838C12.7875 11.5229 12.8294 11.3646 12.9098 11.2253C12.9902 11.0859 13.1063 10.9704 13.246 10.8907C13.3858 10.811 13.5442 10.7699 13.7051 10.7716C13.866 10.7733 14.0235 10.8178 14.1615 10.9005L23.7907 16.7175C23.925 16.7993 24.0359 16.9142 24.1129 17.0513C24.1898 17.1883 24.2303 17.3428 24.2303 17.5C24.2303 17.6572 24.1898 17.8117 24.1129 17.9487C24.0359 18.0858 23.925 18.2007 23.7907 18.2825Z" fill="url(#paint0_linear_3945_2637)"/>
<defs>
<linearGradient id="paint0_linear_3945_2637" x1="0" y1="17.5" x2="35" y2="17.5" gradientUnits="userSpaceOnUse">
<stop stop-color="#FDFBFB"/>
<stop offset="1" stop-color="#EBEDEE"/>
</linearGradient>
</defs>
</svg>
