<svg width="22" height="21" viewBox="0 0 22 21" fill="none" xmlns="http://www.w3.org/2000/svg">
<path d="M15.8125 17.0568V2.95312C15.8117 2.69229 15.7028 2.44235 15.5096 2.2579C15.3164 2.07346 15.0545 1.96951 14.7812 1.96875H3.09375C2.82049 1.96951 2.55865 2.07346 2.36542 2.2579C2.1722 2.44235 2.06329 2.69229 2.0625 2.95312V17.3906C2.06386 17.8253 2.24538 18.2419 2.56741 18.5493C2.88945 18.8567 3.32583 19.03 3.78125 19.0312H17.875" stroke="black" stroke-linejoin="round"/>
<path d="M17.875 19.0312C17.328 19.0312 16.8034 18.8238 16.4166 18.4546C16.0298 18.0854 15.8125 17.5846 15.8125 17.0625V5.25H18.9062C19.1798 5.25 19.4421 5.35371 19.6355 5.53832C19.8289 5.72292 19.9375 5.9733 19.9375 6.23438V17.0625C19.9375 17.5846 19.7202 18.0854 19.3334 18.4546C18.9466 18.8238 18.422 19.0312 17.875 19.0312Z" stroke="black" stroke-linejoin="round"/>
<path d="M10.3125 5.25H13.0625M10.3125 7.875H13.0625M4.8125 10.5H13.0625M4.8125 13.125H13.0625M4.8125 15.75H13.0625" stroke="black" stroke-linecap="round" stroke-linejoin="round"/>
<path d="M7.5625 8.53125H4.8125C4.63016 8.53125 4.4553 8.46211 4.32636 8.33904C4.19743 8.21597 4.125 8.04905 4.125 7.875V5.25C4.125 5.07595 4.19743 4.90903 4.32636 4.78596C4.4553 4.66289 4.63016 4.59375 4.8125 4.59375H7.5625C7.74484 4.59375 7.9197 4.66289 8.04864 4.78596C8.17757 4.90903 8.25 5.07595 8.25 5.25V7.875C8.25 8.04905 8.17757 8.21597 8.04864 8.33904C7.9197 8.46211 7.74484 8.53125 7.5625 8.53125Z" fill="black"/>
</svg>
