<svg width="27" height="27" viewBox="0 0 27 27" fill="none" xmlns="http://www.w3.org/2000/svg">
<g clip-path="url(#clip0_2572_238)">
<path d="M13.4999 26.7128C20.7971 26.7128 26.7126 20.7972 26.7126 13.5C26.7126 6.20279 20.7971 0.287231 13.4999 0.287231C6.20267 0.287231 0.287109 6.20279 0.287109 13.5C0.287109 20.7972 6.20267 26.7128 13.4999 26.7128Z" stroke="#423F3F" stroke-miterlimit="10"/>
<path d="M13.4998 26.4255C20.6383 26.4255 26.4253 20.6386 26.4253 13.5C26.4253 6.36142 20.6383 0.574463 13.4998 0.574463C6.36118 0.574463 0.574219 6.36142 0.574219 13.5C0.574219 20.6386 6.36118 26.4255 13.4998 26.4255Z" stroke="#423F3F" stroke-miterlimit="10"/>
<path d="M9.15079 16.4929V11.3227C9.1447 11.2389 9.16389 11.1553 9.20589 11.0826C9.24788 11.0098 9.31074 10.9514 9.38632 10.9148C9.43607 10.8875 9.49091 10.8708 9.54741 10.8656C9.60392 10.8604 9.66088 10.8669 9.71476 10.8847C9.76864 10.9025 9.81829 10.9312 9.86062 10.969C9.90294 11.0068 9.93704 11.0529 9.96079 11.1044C9.9863 11.1583 10 11.2171 10.001 11.2767V17.5959C10.0062 17.7001 9.97171 17.8024 9.9046 17.8823C9.83748 17.9622 9.74264 18.0138 9.63909 18.0267C9.57162 18.0378 9.50246 18.0314 9.43813 18.0083C9.3738 17.9852 9.31643 17.9461 9.27143 17.8946L8.0076 16.4355L6.22675 14.3789L4.62398 12.552C4.55536 12.47 4.52071 12.3648 4.52712 12.258C4.53353 12.1512 4.58051 12.0509 4.65845 11.9776C4.70157 11.9343 4.75493 11.9027 4.81355 11.8857C4.88963 11.8605 4.9714 11.8579 5.04891 11.8783C5.12642 11.8987 5.19633 11.9412 5.25015 12.0006L6.49675 13.4367L7.6744 14.7982L9.11632 16.4642L9.15079 16.4929Z" fill="#423F3F"/>
<path d="M11.9774 10.8746H12.6955C12.9082 10.8812 13.1198 10.9082 13.3274 10.9551C13.6309 11.0223 13.9244 11.1285 14.2006 11.271C14.4924 11.4242 14.7612 11.6176 14.9991 11.8455C15.2849 12.1098 15.5238 12.4206 15.7057 12.7646C15.8543 13.0353 15.9645 13.3253 16.0332 13.6263C16.0886 13.8659 16.1213 14.1102 16.1308 14.3559C16.1402 14.6612 16.1093 14.9664 16.0389 15.2636C15.9147 15.7925 15.6717 16.2862 15.3283 16.7072C14.9849 17.1282 14.5501 17.4655 14.057 17.6936C13.8 17.8124 13.5302 17.9011 13.2528 17.9578C13.0374 18.0035 12.818 18.0266 12.5979 18.0268H11.2191C11.1646 18.0283 11.1103 18.0189 11.0595 17.9991C11.0087 17.9793 10.9624 17.9495 10.9233 17.9114C10.8842 17.8734 10.8531 17.8279 10.8319 17.7777C10.8107 17.7274 10.7998 17.6734 10.7998 17.6189C10.7986 17.5193 10.8334 17.4227 10.8978 17.3467C10.9622 17.2707 11.0518 17.2205 11.1502 17.2053H12.5806C13.1733 17.2009 13.7475 16.9987 14.2121 16.6308C14.5786 16.3533 14.8691 15.9878 15.0566 15.568C15.18 15.2957 15.2558 15.0043 15.2806 14.7063C15.3104 14.4179 15.291 14.1265 15.2232 13.8446C15.1409 13.4805 14.9847 13.1371 14.7644 12.8357C14.544 12.5343 14.2642 12.2814 13.9421 12.0925C13.6017 11.8861 13.2185 11.7603 12.8219 11.7248H12.6208H11.2191C11.1236 11.7286 11.0296 11.6996 10.9528 11.6427C10.876 11.5857 10.8209 11.5042 10.7968 11.4117C10.7726 11.3191 10.7809 11.2211 10.8201 11.1339C10.8593 11.0467 10.9271 10.9755 11.0123 10.9321C11.0645 10.9074 11.1212 10.8937 11.1789 10.8919L11.9774 10.8746Z" fill="#423F3F"/>
<path d="M2.92372 14.4478V11.2825C2.92293 11.1797 2.95995 11.0802 3.02773 11.0029C3.09551 10.9256 3.18934 10.8758 3.29138 10.8632C3.39268 10.8505 3.49507 10.8758 3.57885 10.9342C3.66263 10.9925 3.72188 11.0797 3.7452 11.1791C3.74863 11.2 3.75055 11.2211 3.75095 11.2423V17.6247C3.7501 17.7063 3.7251 17.7859 3.6791 17.8534C3.63309 17.9208 3.56815 17.9732 3.49244 18.0038C3.41894 18.0352 3.33783 18.0443 3.25919 18.03C3.18055 18.0157 3.10784 17.9786 3.0501 17.9234C3.00824 17.8845 2.9749 17.8374 2.95216 17.785C2.92942 17.7326 2.91778 17.676 2.91797 17.6189L2.92372 14.4478Z" fill="#423F3F"/>
<path d="M17.8082 14.4536V17.6132C17.8103 17.7148 17.7743 17.8136 17.7074 17.8901C17.6404 17.9666 17.5473 18.0154 17.4463 18.0268C17.3458 18.0402 17.2439 18.0167 17.1595 17.9607C17.075 17.9047 17.0136 17.8201 16.9867 17.7223C16.9842 17.6898 16.9842 17.6572 16.9867 17.6247V11.2711C16.9916 11.1765 17.0284 11.0863 17.091 11.0153C17.1537 10.9442 17.2386 10.8965 17.3318 10.8798C17.4251 10.8632 17.5212 10.8786 17.6046 10.9235C17.688 10.9685 17.7537 11.0404 17.791 11.1274C17.7997 11.1807 17.7997 11.235 17.791 11.2883L17.8082 14.4536Z" fill="#423F3F"/>
<path d="M21.3297 14.7925H19.0318C18.934 14.7945 18.8386 14.7624 18.762 14.7015C18.6854 14.6407 18.6325 14.555 18.6124 14.4593C18.5931 14.3651 18.6072 14.2671 18.6523 14.1822C18.6974 14.0973 18.7706 14.0307 18.8595 13.994C18.9104 13.9728 18.9653 13.963 19.0203 13.9652H23.5816C23.6786 13.9464 23.7792 13.9629 23.8651 14.0118C23.951 14.0607 24.0165 14.1387 24.0499 14.2318C24.0832 14.3248 24.0821 14.4267 24.0468 14.519C24.0115 14.6114 23.9443 14.688 23.8573 14.735C23.7918 14.7758 23.7162 14.7976 23.639 14.7982L21.3297 14.7925Z" fill="#423F3F"/>
<path d="M21.3354 17.1938H23.6333C23.739 17.1885 23.8426 17.2239 23.923 17.2927C24.0033 17.3615 24.0542 17.4585 24.0653 17.5637C24.0763 17.6689 24.0466 17.7743 23.9823 17.8583C23.918 17.9423 23.8239 17.9985 23.7195 18.0152H19.0663C18.9655 18.0152 18.868 17.9794 18.7912 17.9141C18.7144 17.8489 18.6633 17.7585 18.6469 17.6591C18.6333 17.5594 18.656 17.4581 18.7108 17.3737C18.7657 17.2894 18.849 17.2275 18.9457 17.1995C18.9799 17.1938 19.0148 17.1938 19.0491 17.1995L21.3354 17.1938Z" fill="#423F3F"/>
<path d="M21.3297 11.7248H19.0778C19.001 11.7284 18.9246 11.711 18.8568 11.6746C18.789 11.6382 18.7324 11.5841 18.6929 11.518C18.6642 11.4707 18.6452 11.4181 18.6372 11.3633C18.6292 11.3086 18.6322 11.2527 18.6461 11.1992C18.6601 11.1456 18.6846 11.0954 18.7183 11.0515C18.752 11.0075 18.7941 10.9708 18.8423 10.9435C18.8746 10.9252 18.9095 10.9116 18.9457 10.9033C18.9799 10.8976 19.0149 10.8976 19.0491 10.9033H23.6448C23.7428 10.9028 23.8377 10.9371 23.9127 11.0001C23.9877 11.063 24.0379 11.1505 24.0545 11.247C24.071 11.3435 24.0528 11.4428 24.003 11.5271C23.9533 11.6114 23.8752 11.6754 23.7827 11.7076C23.725 11.7255 23.665 11.7351 23.6046 11.7363L21.3297 11.7248Z" fill="#423F3F"/>
<path d="M17.4005 9.67975C17.3473 9.68051 17.2943 9.67067 17.2449 9.65081C17.1954 9.63094 17.1504 9.60144 17.1125 9.56402C17.0745 9.5266 17.0444 9.48202 17.0238 9.43285C17.0033 9.38368 16.9927 9.33092 16.9927 9.27762C16.9927 9.16945 17.0356 9.0657 17.1121 8.98921C17.1886 8.91272 17.2924 8.86975 17.4005 8.86975C17.5092 8.87276 17.6124 8.91845 17.6876 8.99694C17.7629 9.07542 17.8042 9.18039 17.8027 9.28911C17.7997 9.39376 17.756 9.49311 17.6809 9.56606C17.6058 9.63901 17.5052 9.67979 17.4005 9.67975Z" fill="#423F3F"/>
<path d="M3.3317 9.67974C3.27889 9.6805 3.22645 9.67085 3.17737 9.65134C3.12829 9.63183 3.08353 9.60284 3.04566 9.56603C3.00778 9.52922 2.97753 9.48531 2.95663 9.43681C2.93572 9.38831 2.92458 9.33616 2.92383 9.28335C2.92383 9.1767 2.96619 9.07442 3.04161 8.99901C3.11702 8.92359 3.21931 8.88123 3.32596 8.88123C3.43413 8.88123 3.53787 8.9242 3.61437 9.00069C3.69086 9.07718 3.73383 9.18092 3.73383 9.2891H3.75106C3.75107 9.34315 3.74033 9.39666 3.71947 9.44652C3.69862 9.49639 3.66806 9.54161 3.62958 9.57956C3.59109 9.61751 3.54545 9.64743 3.4953 9.66759C3.44515 9.68774 3.39149 9.69773 3.33745 9.69697L3.3317 9.67974Z" fill="#423F3F"/>
</g>
<defs>
<clipPath id="clip0_2572_238">
<rect width="27" height="27" fill="white"/>
</clipPath>
</defs>
</svg>
