<svg width="24" height="23" viewBox="0 0 24 23" fill="none" xmlns="http://www.w3.org/2000/svg">
<path d="M7.3125 19.4062H5.4375C4.98995 19.4062 4.56073 19.2359 4.24426 18.9326C3.92779 18.6293 3.75 18.218 3.75 17.7891V10.9609C3.75 10.532 3.92779 10.1207 4.24426 9.81741C4.56073 9.51413 4.98995 9.34375 5.4375 9.34375H7.3125C7.76005 9.34375 8.18927 9.51413 8.50574 9.81741C8.82221 10.1207 9 10.532 9 10.9609V17.7891C9 18.218 8.82221 18.6293 8.50574 18.9326C8.18927 19.2359 7.76005 19.4062 7.3125 19.4062ZM14.0625 19.4062H12.1875C11.7399 19.4062 11.3107 19.2359 10.9943 18.9326C10.6778 18.6293 10.5 18.218 10.5 17.7891V8.80469C10.5 8.37578 10.6778 7.96444 10.9943 7.66116C11.3107 7.35788 11.7399 7.1875 12.1875 7.1875H14.0625C14.5101 7.1875 14.9393 7.35788 15.2557 7.66116C15.5722 7.96444 15.75 8.37578 15.75 8.80469V17.7891C15.75 18.218 15.5722 18.6293 15.2557 18.9326C14.9393 19.2359 14.5101 19.4062 14.0625 19.4062ZM20.7956 19.4062H18.9206C18.4731 19.4062 18.0438 19.2359 17.7274 18.9326C17.4109 18.6293 17.2331 18.218 17.2331 17.7891V5.92969C17.2331 5.50078 17.4109 5.08944 17.7274 4.78616C18.0438 4.48288 18.4731 4.3125 18.9206 4.3125H20.7956C21.2432 4.3125 21.6724 4.48288 21.9889 4.78616C22.3053 5.08944 22.4831 5.50078 22.4831 5.92969V17.7891C22.4831 18.218 22.3053 18.6293 21.9889 18.9326C21.6724 19.2359 21.2432 19.4062 20.7956 19.4062Z" fill="black"/>
</svg>
