<svg width="13" height="13" viewBox="0 0 13 13" fill="none" xmlns="http://www.w3.org/2000/svg">
<g clip-path="url(#clip0_2568_19)">
<path fill-rule="evenodd" clip-rule="evenodd" d="M13 4.59971C13 4.66768 12.9859 4.7348 12.9587 4.79627C12.9315 4.85773 12.8919 4.91201 12.8428 4.95521L8.14386 9.09429C8.08072 9.14994 8.00405 9.18527 7.92281 9.19615C7.84156 9.20702 7.75909 9.19301 7.68503 9.15573C7.61097 9.11845 7.54838 9.05946 7.50455 8.98563C7.46073 8.9118 7.43749 8.82619 7.43755 8.73879V7.08062C5.96396 7.17716 4.55662 7.76817 3.41645 8.76927C2.27627 9.77038 1.46156 11.1304 1.08861 12.6552C1.06455 12.7538 1.01053 12.8411 0.934992 12.9034C0.859459 12.9657 0.76669 12.9995 0.671222 12.9995C0.575755 12.9995 0.482986 12.9657 0.407453 12.9034C0.33192 12.8411 0.277892 12.7538 0.253836 12.6552C-0.0917828 11.2371 -0.0843397 9.74719 0.275428 8.33311C0.635195 6.91903 1.33481 5.6298 2.30497 4.59311C3.67199 3.12542 5.5015 2.25282 7.43778 2.14496V0.460379C7.43779 0.372976 7.46107 0.287376 7.50493 0.213565C7.54878 0.139753 7.61139 0.080774 7.68546 0.0435069C7.75953 0.00623984 7.84199 -0.00777844 7.92324 0.00308743C8.00449 0.0139533 8.08117 0.0492553 8.14433 0.104875L12.843 4.24395C12.8921 4.28717 12.9317 4.34145 12.9588 4.40292C12.986 4.46439 13 4.5315 13 4.59945V4.59971Z" fill="black"/>
</g>
<defs>
<clipPath id="clip0_2568_19">
<rect width="13" height="13" fill="white"/>
</clipPath>
</defs>
</svg>
