<svg width="14" height="14" viewBox="0 0 14 14" fill="none" xmlns="http://www.w3.org/2000/svg">
<path d="M6.04958 0.904753C6.35018 -0.0139512 7.64983 -0.0139512 7.95042 0.904753L8.89917 3.80439C9.03365 4.21542 9.41712 4.49342 9.84959 4.49342H12.9049C13.8753 4.49342 14.2769 5.73659 13.49 6.30438L11.0302 8.07907C10.6773 8.33371 10.5296 8.78738 10.6649 9.201L11.6073 12.0812C11.9083 13.0012 10.8568 13.7695 10.0718 13.2031L7.5851 11.409C7.23575 11.1569 6.76425 11.1569 6.4149 11.409L3.92824 13.2031C3.14316 13.7695 2.09168 13.0012 2.39272 12.0812L3.33509 9.201C3.47043 8.78738 3.32271 8.33371 2.96978 8.07907L0.510022 6.30438C-0.276944 5.73659 0.124712 4.49342 1.09512 4.49342H4.15041C4.58288 4.49342 4.96635 4.21542 5.10083 3.80439L6.04958 0.904753Z" fill="#FFB800"/>
</svg>
