<svg width="19" height="19" viewBox="0 0 19 19" fill="none" xmlns="http://www.w3.org/2000/svg">
<path fill-rule="evenodd" clip-rule="evenodd" d="M16.2318 2.76097C15.3535 1.88226 14.3101 1.18593 13.1616 0.712097C12.0131 0.23826 10.7822 -0.00373486 9.53985 4.35725e-05C4.32589 4.35725e-05 0.0814284 4.22329 0.0793079 9.4152C0.0770013 11.0684 0.512785 12.6927 1.3423 14.1228L0 19L5.01506 17.6908C6.40325 18.4428 7.95722 18.8364 9.53603 18.8359H9.53985C14.7534 18.8359 18.9974 14.6122 19 9.42071C19.0031 8.18256 18.76 6.95614 18.2848 5.81282C17.8096 4.66949 17.1117 3.63209 16.2318 2.76097ZM9.53985 17.2467H9.53646C8.12901 17.2472 6.74715 16.8705 5.53459 16.1559L5.24747 15.9863L2.27151 16.7633L3.06587 13.8755L2.87883 13.5787C2.09186 12.3327 1.6749 10.8889 1.67649 9.4152C1.67649 5.10077 5.20548 1.59044 9.54282 1.59044C11.6235 1.58673 13.6204 2.40962 15.0944 3.87812C16.5684 5.34663 17.3987 7.34048 17.4028 9.42114C17.4011 13.736 13.8738 17.2467 9.53985 17.2467ZM13.8526 11.386C13.6164 11.2681 12.453 10.699 12.2376 10.6205C12.0221 10.5421 11.8631 10.5026 11.7058 10.7384C11.5484 10.9742 11.095 11.5018 10.9572 11.6608C10.8194 11.8199 10.6815 11.8373 10.4453 11.7194C10.2091 11.6015 9.44697 11.3534 8.54405 10.5518C7.84131 9.92794 7.36715 9.15777 7.22932 8.92239C7.09149 8.68701 7.21448 8.55935 7.3328 8.4423C7.43925 8.3367 7.56903 8.16748 7.68735 8.03007C7.80568 7.89266 7.84512 7.79427 7.92358 7.63735C8.00204 7.48043 7.96302 7.34302 7.90407 7.22554C7.84512 7.10806 7.37224 5.94983 7.17546 5.47865C6.98334 5.01976 6.78867 5.08211 6.64363 5.0749C6.50579 5.06811 6.34675 5.06642 6.19026 5.06642C6.07062 5.06953 5.95291 5.09727 5.84448 5.14791C5.73605 5.19856 5.63922 5.27101 5.56004 5.36075C5.34332 5.59655 4.7326 6.16655 4.7326 7.32351C4.7326 8.48047 5.58082 9.60011 5.69787 9.75703C5.81492 9.91395 7.36461 12.2902 9.73579 13.3093C10.1761 13.4979 10.626 13.6632 11.0836 13.8047C11.6498 13.9837 12.1651 13.9587 12.5722 13.898C13.0264 13.8306 13.9718 13.3289 14.1681 12.7792C14.3645 12.2296 14.3649 11.7588 14.306 11.6608C14.247 11.5629 14.0892 11.5035 13.8526 11.386Z" fill="black"/>
</svg>
